<svg width="54" height="54" viewBox="0 0 54 54" fill="none" xmlns="http://www.w3.org/2000/svg">
<path fill-rule="evenodd" clip-rule="evenodd" d="M52 28H47C44.24 28 42 30.24 42 33C42 35.749 44.223 37.983 46.968 38H52V52H41V47C41 44.24 38.76 42 36 42C33.251 42 31.017 44.223 31 46.968V52H24V24H52V28Z" fill="#A9D250"/>
<path fill-rule="evenodd" clip-rule="evenodd" d="M29 10V6.95502C29.024 3.11202 32.152 0 36 0C39.863 0 43 3.137 43 7V10H52C53.105 10 54 10.895 54 12V28C54 29.105 53.105 30 52 30H47C45.344 30 44 31.344 44 33C44 34.649 45.334 35.99 46.968 36H52C53.105 36 54 36.895 54 38V40C54 41.104 53.104 42 52 42C50.896 42 50 41.104 50 40H46.955C43.112 39.976 40 36.848 40 33C40 29.137 43.137 26 47 26H50V14H41C39.895 14 39 13.105 39 12V7C39 5.344 37.656 4 36 4C34.351 4 33.01 5.33402 33 6.96802V12C33 13.105 32.105 14 31 14H14V28C14 29.105 13.105 30 12 30H7C5.344 30 4 31.344 4 33C4 34.649 5.33402 35.99 6.96802 36H12C13.105 36 14 36.895 14 38V50H29V46.955C29.024 43.112 32.152 40 36 40C39.863 40 43 43.137 43 47V50H50V48C50 46.896 50.896 46 52 46C53.104 46 54 46.896 54 48V52C54 53.105 53.105 54 52 54H41C39.895 54 39 53.105 39 52V47C39 45.344 37.656 44 36 44C34.351 44 33.01 45.334 33 46.968V52C33 53.105 32.105 54 31 54H12C10.895 54 10 53.105 10 52V40H6.95502C3.11202 39.976 0 36.848 0 33C0 29.137 3.137 26 7 26H10V12C10 10.895 10.895 10 12 10H29Z" fill="#4F4C4C"/>
</svg>
