<svg width="55" height="54" viewBox="0 0 55 54" fill="none" xmlns="http://www.w3.org/2000/svg">
<path fill-rule="evenodd" clip-rule="evenodd" d="M44.7111 4.48152C49.064 6.80579 51.7037 7.77426 51.7037 12.9699V35.8128C51.7037 43.3772 55.1407 49.5186 44.7111 49.5186H14.41C7.70882 49.5186 2.10196 44.8894 0.740738 38.7195C2.72546 39.7795 5.00037 40.3814 7.41747 40.3814H35.7037C43.4223 40.3814 44.7111 38.7126 44.7111 31.1482V4.48152C44.9186 5.41923 44.7111 3.48443 44.7111 4.48152Z" fill="#A9D250"/>
<path d="M46.6667 0.333374H9.33333C7.2116 0.333374 5.17677 1.17623 3.67648 2.67652C2.17619 4.17681 1.33333 6.21164 1.33333 8.33337V45.6667C1.33333 47.7884 2.17619 49.8233 3.67648 51.3236C5.17677 52.8239 7.2116 53.6667 9.33333 53.6667H46.6667C48.7884 53.6667 50.8232 52.8239 52.3235 51.3236C53.8238 49.8233 54.6667 47.7884 54.6667 45.6667V8.33337C54.6667 6.21164 53.8238 4.17681 52.3235 2.67652C50.8232 1.17623 48.7884 0.333374 46.6667 0.333374ZM22.6667 5.66671H33.3333V14.0134L29.4667 11.3467C29.0313 11.06 28.5213 10.9071 28 10.9071C27.4787 10.9071 26.9687 11.06 26.5333 11.3467L22.6667 14.0134V5.66671ZM49.3333 45.6667C49.3333 46.374 49.0524 47.0522 48.5523 47.5523C48.0522 48.0524 47.3739 48.3334 46.6667 48.3334H9.33333C8.62609 48.3334 7.94781 48.0524 7.44771 47.5523C6.94762 47.0522 6.66666 46.374 6.66666 45.6667V8.33337C6.66666 7.62613 6.94762 6.94785 7.44771 6.44776C7.94781 5.94766 8.62609 5.66671 9.33333 5.66671H17.3333V19C17.3346 19.4825 17.4667 19.9555 17.7156 20.3687C17.9645 20.782 18.3209 21.12 18.7467 21.3467C19.1637 21.5608 19.6297 21.6612 20.0979 21.6378C20.5661 21.6144 21.0198 21.468 21.4133 21.2134L28 16.8667L34.5333 21.2134C34.9344 21.4775 35.3993 21.6284 35.8791 21.6502C36.3588 21.672 36.8355 21.5638 37.2589 21.3371C37.6822 21.1104 38.0365 20.7736 38.2843 20.3623C38.5321 19.9509 38.6642 19.4803 38.6667 19V5.66671H46.6667C47.3739 5.66671 48.0522 5.94766 48.5523 6.44776C49.0524 6.94785 49.3333 7.62613 49.3333 8.33337V45.6667Z" fill="#4F4C4C"/>
</svg>
