<svg width="54" height="54" viewBox="0 0 54 54" fill="none" xmlns="http://www.w3.org/2000/svg">
<path d="M45.6667 0.333374H8.33334C6.2116 0.333374 4.17677 1.17623 2.67648 2.67652C1.17619 4.17681 0.333336 6.21164 0.333336 8.33337V45.6667C0.333336 47.7884 1.17619 49.8233 2.67648 51.3236C4.17677 52.8239 6.2116 53.6667 8.33334 53.6667H45.6667C47.7884 53.6667 49.8232 52.8239 51.3235 51.3236C52.8238 49.8233 53.6667 47.7884 53.6667 45.6667V8.33337C53.6667 6.21164 52.8238 4.17681 51.3235 2.67652C49.8232 1.17623 47.7884 0.333374 45.6667 0.333374ZM21.6667 5.66671H32.3333V14.0134L28.4667 11.3467C28.0313 11.06 27.5213 10.9071 27 10.9071C26.4787 10.9071 25.9687 11.06 25.5333 11.3467L21.6667 14.0134V5.66671ZM48.3333 45.6667C48.3333 46.374 48.0524 47.0522 47.5523 47.5523C47.0522 48.0524 46.3739 48.3334 45.6667 48.3334H8.33334C7.62609 48.3334 6.94781 48.0524 6.44772 47.5523C5.94762 47.0522 5.66667 46.374 5.66667 45.6667V8.33337C5.66667 7.62613 5.94762 6.94785 6.44772 6.44776C6.94781 5.94766 7.62609 5.66671 8.33334 5.66671H16.3333V19C16.3346 19.4825 16.4668 19.9555 16.7156 20.3687C16.9645 20.782 17.3209 21.12 17.7467 21.3467C18.1637 21.5608 18.6297 21.6612 19.0979 21.6378C19.5661 21.6144 20.0198 21.468 20.4133 21.2134L27 16.8667L33.5333 21.2134C33.9344 21.4775 34.3993 21.6284 34.8791 21.6502C35.3588 21.672 35.8355 21.5638 36.2589 21.3371C36.6822 21.1104 37.0365 20.7736 37.2843 20.3623C37.5321 19.9509 37.6642 19.4803 37.6667 19V5.66671H45.6667C46.3739 5.66671 47.0522 5.94766 47.5523 6.44776C48.0524 6.94785 48.3333 7.62613 48.3333 8.33337V45.6667Z" fill="#CCCCCC"/>
</svg>
