<svg width="52" height="52" viewBox="0 0 52 52" fill="none" xmlns="http://www.w3.org/2000/svg">
<path fill-rule="evenodd" clip-rule="evenodd" d="M26 -0.000976562C16.616 -0.000976562 8.99898 7.61602 8.99898 17C8.99898 26.384 16.616 34.001 26 34.001C35.384 34.001 43.001 26.384 43.001 17C43.001 7.61602 35.384 -0.000976562 26 -0.000976562ZM26 4.00102C33.176 4.00102 38.999 9.82402 38.999 17C38.999 24.176 33.176 29.999 26 29.999C18.824 29.999 13.001 24.176 13.001 17C13.001 9.82402 18.824 4.00102 26 4.00102Z" fill="#CCCCCC"/>
<path fill-rule="evenodd" clip-rule="evenodd" d="M15.731 30.5421C8.75599 34.2351 4.00102 41.5671 4.00102 50.0001C4.00102 51.1041 3.104 52.0011 2 52.0011C0.896 52.0011 -0.00102234 51.1041 -0.00102234 50.0001C-0.00102234 39.5151 6.21802 30.4701 15.167 26.3601C15.89 26.0301 16.742 26.1561 17.336 26.6871C19.637 28.7481 22.673 29.9991 26 29.9991C29.327 29.9991 32.363 28.7481 34.664 26.6871C35.258 26.1561 36.11 26.0301 36.833 26.3601C45.782 30.4701 52.001 39.5151 52.001 50.0001C52.001 51.1041 51.104 52.0011 50 52.0011C48.896 52.0011 47.999 51.1041 47.999 50.0001C47.999 41.5671 43.244 34.2351 36.269 30.5421C33.419 32.7111 29.858 34.0011 26 34.0011C22.142 34.0011 18.581 32.7111 15.731 30.5421Z" fill="#CCCCCC"/>
</svg>
