<svg width="72" height="51" viewBox="0 0 72 51" fill="none" xmlns="http://www.w3.org/2000/svg">
<path d="M58.798 15.6406H51.1527V8.10718C51.1527 6.10919 50.3472 4.19302 48.9135 2.78023C47.4797 1.36743 45.5351 0.57373 43.5074 0.57373H7.82923C5.80157 0.57373 3.85695 1.36743 2.42318 2.78023C0.989401 4.19302 0.183914 6.10919 0.183914 8.10718V43.2633C0.183914 43.9293 0.45241 44.568 0.930335 45.0389C1.40826 45.5099 2.05647 45.7744 2.73235 45.7744H10.8364C11.3721 47.2288 12.3492 48.4853 13.635 49.3733C14.9208 50.2613 16.4529 50.7377 18.023 50.7377C19.5931 50.7377 21.1252 50.2613 22.411 49.3733C23.6968 48.4853 24.6739 47.2288 25.2096 45.7744H51.6114C52.1471 47.2288 53.1243 48.4853 54.41 49.3733C55.6958 50.2613 57.2279 50.7377 58.798 50.7377C60.3682 50.7377 61.9002 50.2613 63.186 49.3733C64.4718 48.4853 65.4489 47.2288 65.9846 45.7744H68.9918C69.6677 45.7744 70.3159 45.5099 70.7938 45.0389C71.2717 44.568 71.5402 43.9293 71.5402 43.2633V28.1964C71.5402 24.8664 70.1978 21.6728 67.8081 19.3181C65.4185 16.9635 62.1775 15.6406 58.798 15.6406ZM18.023 45.7744C17.519 45.7744 17.0262 45.6272 16.6072 45.3512C16.1881 45.0753 15.8614 44.6831 15.6685 44.2243C15.4757 43.7654 15.4252 43.2605 15.5235 42.7734C15.6219 42.2863 15.8646 41.8388 16.221 41.4876C16.5774 41.1364 17.0315 40.8973 17.5258 40.8004C18.0202 40.7035 18.5326 40.7532 18.9982 40.9433C19.4639 41.1333 19.8619 41.4552 20.1419 41.8682C20.422 42.2811 20.5714 42.7666 20.5714 43.2633C20.5714 43.9293 20.3029 44.568 19.825 45.0389C19.3471 45.5099 18.6989 45.7744 18.023 45.7744ZM46.0558 40.7521H25.2096C24.6739 39.2978 23.6968 38.0412 22.411 37.1533C21.1252 36.2653 19.5931 35.7889 18.023 35.7889C16.4529 35.7889 14.9208 36.2653 13.635 37.1533C12.3492 38.0412 11.3721 39.2978 10.8364 40.7521H5.28079V33.2187H46.0558V40.7521ZM46.0558 28.1964H5.28079V8.10718C5.28079 7.44118 5.54929 6.80246 6.02722 6.33153C6.50514 5.8606 7.15335 5.59603 7.82923 5.59603H43.5074C44.1833 5.59603 44.8315 5.8606 45.3094 6.33153C45.7873 6.80246 46.0558 7.44118 46.0558 8.10718V28.1964ZM58.798 45.7744C58.294 45.7744 57.8013 45.6272 57.3822 45.3512C56.9631 45.0753 56.6365 44.6831 56.4436 44.2243C56.2507 43.7654 56.2002 43.2605 56.2986 42.7734C56.3969 42.2863 56.6396 41.8388 56.996 41.4876C57.3524 41.1364 57.8065 40.8973 58.3009 40.8004C58.7952 40.7035 59.3076 40.7532 59.7733 40.9433C60.2389 41.1333 60.637 41.4552 60.917 41.8682C61.197 42.2811 61.3465 42.7666 61.3465 43.2633C61.3465 43.9293 61.078 44.568 60.6001 45.0389C60.1221 45.5099 59.4739 45.7744 58.798 45.7744ZM66.4434 40.7521H65.9846C65.4489 39.2978 64.4718 38.0412 63.186 37.1533C61.9002 36.2653 60.3682 35.7889 58.798 35.7889C57.2279 35.7889 55.6958 36.2653 54.41 37.1533C53.1243 38.0412 52.1471 39.2978 51.6114 40.7521H51.1527V20.6629H53.7012V30.7075C53.7012 31.3735 53.9697 32.0123 54.4476 32.4832C54.9255 32.9541 55.5737 33.2187 56.2496 33.2187H66.4434V40.7521ZM58.798 28.1964V20.6629C60.8257 20.6629 62.7703 21.4566 64.2041 22.8694C65.6379 24.2822 66.4434 26.1984 66.4434 28.1964H58.798Z" fill="#CCCCCC"/>
</svg>
