<svg width="26" height="19" viewBox="0 0 26 19" fill="none" xmlns="http://www.w3.org/2000/svg">
<path d="M6.00002 18.8334C5.0278 18.8334 4.20141 18.4931 3.52085 17.8126C2.8403 17.132 2.50002 16.3056 2.50002 15.3334H0.166687V2.50008C0.166687 1.85841 0.395354 1.3093 0.852687 0.852748C1.30924 0.395415 1.85835 0.166748 2.50002 0.166748H18.8334V4.83342H22.3334L25.8334 9.50008V15.3334H23.5C23.5 16.3056 23.1597 17.132 22.4792 17.8126C21.7986 18.4931 20.9722 18.8334 20 18.8334C19.0278 18.8334 18.2014 18.4931 17.5209 17.8126C16.8403 17.132 16.5 16.3056 16.5 15.3334H9.50002C9.50002 16.3056 9.15974 17.132 8.47919 17.8126C7.79863 18.4931 6.97224 18.8334 6.00002 18.8334ZM6.00002 16.5001C6.33058 16.5001 6.60785 16.3881 6.83185 16.1641C7.05508 15.9409 7.16669 15.664 7.16669 15.3334C7.16669 15.0029 7.05508 14.726 6.83185 14.5027C6.60785 14.2787 6.33058 14.1667 6.00002 14.1667C5.66947 14.1667 5.39219 14.2787 5.16819 14.5027C4.94497 14.726 4.83335 15.0029 4.83335 15.3334C4.83335 15.664 4.94497 15.9409 5.16819 16.1641C5.39219 16.3881 5.66947 16.5001 6.00002 16.5001ZM20 16.5001C20.3306 16.5001 20.6075 16.3881 20.8307 16.1641C21.0547 15.9409 21.1667 15.664 21.1667 15.3334C21.1667 15.0029 21.0547 14.726 20.8307 14.5027C20.6075 14.2787 20.3306 14.1667 20 14.1667C19.6695 14.1667 19.3926 14.2787 19.1694 14.5027C18.9454 14.726 18.8334 15.0029 18.8334 15.3334C18.8334 15.664 18.9454 15.9409 19.1694 16.1641C19.3926 16.3881 19.6695 16.5001 20 16.5001ZM18.8334 10.6667H23.7917L21.1667 7.16675H18.8334V10.6667Z" fill="#80B213"/>
</svg>
