<svg width="26" height="22" viewBox="0 0 26 22" fill="none" xmlns="http://www.w3.org/2000/svg">
<path fill-rule="evenodd" clip-rule="evenodd" d="M24.7 14.8H25.35C25.7075 14.8 26 15.0925 26 15.45V16.75C26 17.1075 25.7075 17.4 25.35 17.4H23.4C23.4 19.5531 21.6531 21.3 19.5 21.3C17.3469 21.3 15.6 19.5531 15.6 17.4H10.4C10.4 19.5531 8.65313 21.3 6.5 21.3C4.34688 21.3 2.6 19.5531 2.6 17.4V12.2H8.775C8.95375 12.2 9.1 12.0537 9.1 11.875V11.225C9.1 11.0462 8.95375 10.9 8.775 10.9H0.325C0.14625 10.9 0 10.7537 0 10.575V9.925C0 9.74625 0.14625 9.6 0.325 9.6H10.075C10.2538 9.6 10.4 9.45375 10.4 9.275V8.625C10.4 8.44625 10.2538 8.3 10.075 8.3H1.625C1.44625 8.3 1.3 8.15375 1.3 7.975V7.325C1.3 7.14625 1.44625 7 1.625 7H11.375C11.5538 7 11.7 6.85375 11.7 6.675V6.025C11.7 5.84625 11.5538 5.7 11.375 5.7H0.325C0.14625 5.7 0 5.55375 0 5.375V4.725C0 4.54625 0.14625 4.4 0.325 4.4H2.6V2.45C2.6 1.37344 3.47344 0.5 4.55 0.5H14.95C16.0266 0.5 16.9 1.37344 16.9 2.45V4.4H18.6916C19.2075 4.4 19.7031 4.60719 20.0688 4.97281L24.1272 9.03125C24.4928 9.39687 24.7 9.8925 24.7 10.4084V14.8ZM4.54949 17.4C4.54949 18.4766 5.42293 19.35 6.49949 19.35C7.57606 19.35 8.44949 18.4766 8.44949 17.4C8.44949 16.3234 7.57606 15.45 6.49949 15.45C5.42293 15.45 4.54949 16.3234 4.54949 17.4ZM17.5495 17.4C17.5495 18.4766 18.4229 19.35 19.4995 19.35C20.5761 19.35 21.4495 18.4766 21.4495 17.4C21.4495 16.3234 20.5761 15.45 19.4995 15.45C18.4229 15.45 17.5495 16.3234 17.5495 17.4ZM16.8995 10.9H22.7495V10.4084L18.6911 6.35H16.8995V10.9Z" fill="#80B213"/>
</svg>
