<svg width="15" height="15" viewBox="0 0 15 15" fill="none" xmlns="http://www.w3.org/2000/svg">
<g id="Iconly/Broken/Location">
<g id="Location">
<path id="Location_2" fill-rule="evenodd" clip-rule="evenodd" d="M7.49996 1.25H7.52081C10.4498 1.26151 12.8239 3.65123 12.8124 6.57645V6.63455C12.7729 8.72501 11.5161 10.4597 10.469 11.5466C10.171 11.8574 9.85379 12.1556 9.52671 12.434C9.33078 12.6012 9.03662 12.5782 8.86923 12.3825C8.70185 12.1863 8.72545 11.8925 8.92137 11.7253C9.22431 11.4672 9.51902 11.1898 9.79617 10.901C10.728 9.93412 11.8454 8.40546 11.8794 6.61756C11.8888 4.16151 9.93227 2.19109 7.51697 2.18122H7.49996C5.09289 2.18122 3.1298 4.13247 3.12047 6.53808C3.16163 7.72637 3.56336 8.856 4.28285 9.80367C5.12252 10.9218 6.39631 12.1057 7.60698 12.8939C7.82321 13.0342 7.88412 13.3225 7.74308 13.5384C7.65417 13.6755 7.50435 13.75 7.35178 13.75C7.26452 13.75 7.17671 13.7259 7.09768 13.6744C5.8014 12.8308 4.43706 11.5625 3.53757 10.3649C2.70283 9.26489 2.2358 7.95218 2.1875 6.57042C2.19902 3.61615 4.5803 1.25 7.49996 1.25ZM6.40948 6.63384C6.40948 7.23291 6.89792 7.72127 7.49831 7.72127C8.09871 7.72127 8.58715 7.23291 8.58715 6.63384C8.58715 6.03421 8.09871 5.54585 7.49831 5.54585C7.24092 5.54585 7.03183 5.33758 7.03183 5.08052C7.03183 4.82291 7.24092 4.61463 7.49831 4.61463C8.61294 4.61463 9.52012 5.52009 9.52012 6.63384C9.52012 7.74703 8.61294 8.65249 7.49831 8.65249C6.38368 8.65249 5.4765 7.74703 5.4765 6.63384C5.4765 6.37623 5.6856 6.16795 5.94299 6.16795C6.20038 6.16795 6.40948 6.37623 6.40948 6.63384Z" fill="#212121"/>
</g>
</g>
</svg>
