<svg width="24" height="24" viewBox="0 0 24 24" fill="none" xmlns="http://www.w3.org/2000/svg">
<path d="M23.1391 22.0499L21.5891 20.8999C20.3391 19.9499 18.3391 19.9499 17.0391 20.8999L16.7891 21.0999C16.1891 21.5499 15.1891 21.5499 14.5891 21.0999L13.8891 20.5499C12.6391 19.5999 10.6391 19.5999 9.33914 20.5499L9.03914 20.7499C8.43914 21.1999 7.43914 21.1999 6.83914 20.7499C5.58914 19.7999 3.58914 19.7999 2.28914 20.7499L0.43914 22.2499C-0.0108595 22.5999 -0.0608595 23.1999 0.239141 23.5999C0.43914 23.8499 0.739141 23.9999 1.03914 23.9999C1.23914 23.9999 1.43914 23.9499 1.63914 23.7999L3.53914 22.3499C4.13914 21.8999 5.13914 21.8999 5.73914 22.3499C6.98914 23.2999 8.98914 23.2999 10.2891 22.3499L10.5891 22.1499C11.1891 21.6999 12.1891 21.6999 12.7891 22.1499L13.4891 22.6999C14.7391 23.6499 16.7391 23.6499 18.0391 22.6999L18.3391 22.4999C18.9391 22.0499 19.9391 22.0499 20.5391 22.4999L22.0891 23.6499C22.5391 23.9999 23.1391 23.8999 23.4391 23.4499C23.6891 22.9999 23.5891 22.3999 23.1391 22.0499Z" fill="#80B213"/>
<path d="M12.1891 4.4L20.7391 7.1L19.9391 1.35C19.8891 0.85 19.4391 0.5 18.9891 0.5H4.58911C4.08911 0.5 3.68911 0.85 3.63911 1.35L2.83911 7.15L11.6391 4.45C11.7891 4.35 11.9891 4.35 12.1891 4.4Z" fill="#80B213"/>
<path d="M1.03909 19.9C1.23909 19.9 1.43909 19.85 1.63909 19.7L3.48909 18.25C4.08909 17.8 5.08909 17.8 5.68909 18.25C6.93909 19.2 8.93909 19.2 10.2391 18.25L10.5391 18.05C11.1391 17.6 12.1391 17.6 12.7391 18.05L13.4391 18.6C14.6891 19.55 16.6891 19.55 17.9891 18.6L18.2891 18.4C18.8891 17.95 19.8891 17.95 20.4891 18.4L22.0391 19.55C22.4891 19.9 23.0891 19.8 23.3891 19.35C23.7391 18.9 23.6391 18.3 23.1891 18L21.6391 16.85C20.3891 15.9 18.3891 15.9 17.0891 16.85L16.7891 17C16.1891 17.45 15.1891 17.45 14.5891 17L13.8891 16.45C12.6391 15.5 10.6391 15.5 9.33909 16.45L9.03909 16.65C8.43909 17.1 7.43909 17.1 6.83909 16.65C5.58909 15.7 3.58909 15.7 2.28909 16.65L0.389092 18.1C-0.0609083 18.45 -0.110908 19.05 0.189092 19.45C0.439092 19.75 0.739092 19.9 1.03909 19.9Z" fill="#80B213"/>
<path d="M4.58909 14.0001C5.83909 14.0001 6.98909 14.3501 7.93909 15.0501L8.13909 14.9001C8.98909 14.2501 10.0891 13.8501 11.1891 13.8001V7.9001V6.6001L0.939087 9.8001L3.08909 14.2001C3.58909 14.0501 4.08909 14.0001 4.58909 14.0001Z" fill="#80B213"/>
<path d="M13.1891 7.9V14C13.8891 14.2 14.5391 14.5 15.0891 14.9L15.6891 15.35L15.8891 15.2C16.8391 14.5 18.0891 14.1 19.3391 14.1C19.7391 14.1 20.1391 14.15 20.4891 14.2L22.6391 9.75L13.1891 6.75V7.9Z" fill="#80B213"/>
</svg>
