<svg width="23" height="16" viewBox="0 0 23 16" fill="none" xmlns="http://www.w3.org/2000/svg">
<path fill-rule="evenodd" clip-rule="evenodd" d="M1.08335 9.06266C0.73075 9.06266 0.402073 9.2411 0.209927 9.53673C0.0177846 9.83235 -0.0117394 10.2052 0.131469 10.5274L2.2148 15.2148C2.38199 15.5911 2.75503 15.8335 3.16669 15.8335H20.3542C20.8025 15.8335 21.2006 15.5466 21.3424 15.1212L22.9049 10.4337C23.0107 10.1161 22.9575 9.76693 22.7617 9.49527C22.566 9.2236 22.2515 9.06266 21.9167 9.06266H1.08335Z" fill="#80B213"/>
<path fill-rule="evenodd" clip-rule="evenodd" d="M5.25002 11.146C4.67473 11.146 4.20835 10.6796 4.20835 10.1043V6.4585C4.20835 5.88318 4.67473 5.41683 5.25002 5.41683H19.8334C20.4087 5.41683 20.875 5.88318 20.875 6.4585V10.1043C20.875 10.6796 20.4087 11.146 19.8334 11.146H5.25002Z" fill="#80B213"/>
<path fill-rule="evenodd" clip-rule="evenodd" d="M9.41669 6.4585C9.41669 7.03381 9.88304 7.50016 10.4584 7.50016H17.75C18.3253 7.50016 18.7917 7.03381 18.7917 6.4585V2.81266C18.7917 2.23737 18.3253 1.771 17.75 1.771H10.4584C9.88304 1.771 9.41669 2.23737 9.41669 2.81266V6.4585ZM11.5 5.41683V3.85433H16.7084V5.41683H11.5Z" fill="#80B213"/>
<path fill-rule="evenodd" clip-rule="evenodd" d="M17.75 0.208496V2.81266H15.6667V0.208496H17.75ZM14.625 0.208496V2.81266H12.5417V0.208496H14.625Z" fill="#80B213"/>
</svg>
