<svg width="15" height="15" viewBox="0 0 15 15" fill="none" xmlns="http://www.w3.org/2000/svg">
<g id="Iconly/Broken/Tick Square">
<g id="Tick Square">
<path id="Tick Square_2" fill-rule="evenodd" clip-rule="evenodd" d="M13.7501 7.76369C13.7501 8.02431 13.5382 8.23619 13.2776 8.23619H13.272V8.22494C13.0082 8.22494 12.7945 8.01181 12.7939 7.74806V7.74681V6.15806C12.7939 4.24994 11.7501 3.20619 9.84762 3.20619H5.16012C3.25637 3.20619 2.20637 4.25619 2.20637 6.15806V10.8456C2.20637 12.7418 3.25637 13.7918 5.15825 13.7918H9.84575C11.7476 13.7918 12.792 12.7418 12.792 10.8456C12.792 10.5818 13.0057 10.3674 13.2701 10.3674C13.5345 10.3674 13.7482 10.5818 13.7482 10.8456C13.7501 13.2549 12.2551 14.7499 9.84762 14.7499H5.15825C2.74512 14.7499 1.25012 13.2549 1.25012 10.8474V6.15994C1.25012 3.74494 2.74512 2.24994 5.15825 2.24994H9.84575C12.2439 2.24994 13.7501 3.74494 13.7501 6.15806V7.76369ZM6.75862 9.32088L9.39362 6.68525C9.57675 6.50213 9.87362 6.50213 10.0567 6.68525C10.2399 6.86838 10.2399 7.16525 10.0567 7.34838L7.08987 10.3153C7.00175 10.4028 6.88237 10.4521 6.75862 10.4521C6.63362 10.4521 6.51487 10.4028 6.42675 10.3153L4.94362 8.8315C4.7605 8.64838 4.7605 8.3515 4.94362 8.16838C5.12675 7.98525 5.42362 7.98525 5.60675 8.16838L6.75862 9.32088Z" fill="#EEBD5E"/>
</g>
</g>
</svg>
