<svg width="15" height="15" viewBox="0 0 15 15" fill="none" xmlns="http://www.w3.org/2000/svg">
<g id="Iconly/Broken/Time Circle">
<g id="Time Circle">
<path id="Time Circle_2" fill-rule="evenodd" clip-rule="evenodd" d="M1.24988 7.49988C1.24988 4.053 4.05363 1.24988 7.49988 1.24988C10.9461 1.24988 13.7499 4.053 13.7499 7.49988C13.7499 10.9461 10.9461 13.7499 7.49988 13.7499C5.5455 13.7499 3.73925 12.8605 2.5455 11.3111C2.39238 11.1118 2.42988 10.8261 2.62863 10.6736C2.82738 10.5199 3.11175 10.558 3.2655 10.7561C4.28613 12.0811 5.82925 12.8411 7.49988 12.8411C10.4449 12.8411 12.8411 10.4455 12.8411 7.49988C12.8411 4.55488 10.4449 2.15863 7.49988 2.15863C4.55488 2.15863 2.15925 4.55488 2.15925 7.49988C2.15925 7.77363 2.17925 8.0455 2.21988 8.31175C2.25738 8.55925 2.08738 8.79113 1.83925 8.82925C1.58988 8.8705 1.35925 8.69738 1.32175 8.44925C1.27425 8.138 1.24988 7.81863 1.24988 7.49988ZM6.83369 4.89825C6.83369 4.647 7.03744 4.44325 7.28807 4.44325C7.53869 4.44325 7.74244 4.647 7.74244 4.89825V7.677L9.88244 8.95325C10.0981 9.082 10.1687 9.36075 10.0399 9.57638C9.95557 9.71825 9.80432 9.79763 9.64994 9.79763C9.57057 9.79763 9.48994 9.777 9.41744 9.73388L7.05494 8.32513C6.91807 8.24263 6.83369 8.0945 6.83369 7.9345V4.89825Z" fill="#212121"/>
</g>
</g>
</svg>
